<svg id="Layer_1" data-name="Layer 1" xmlns="http://www.w3.org/2000/svg" xmlns:xlink="http://www.w3.org/1999/xlink" viewBox="0 0 400 400"><defs><style>.cls-1{fill:url(#New_Gradient_Swatch);}.cls-2{fill:none;}.cls-3,.cls-4{fill:#fff;}.cls-3{opacity:0.75;}</style><linearGradient id="New_Gradient_Swatch" y1="200" x2="400" y2="200" gradientUnits="userSpaceOnUse"><stop offset="0.12" stop-color="#eb256d"></stop><stop offset="0.26" stop-color="#ec2a67"></stop><stop offset="0.44" stop-color="#ef3957"></stop><stop offset="0.65" stop-color="#f4513d"></stop><stop offset="0.87" stop-color="#fb7318"></stop><stop offset="1" stop-color="#ff8a00"></stop></linearGradient></defs><title>workflow-engine-on-gradient</title><circle class="cls-1" cx="200" cy="200" r="200"></circle><path class="cls-2" d="M150.92,194.75a82.33,82.33,0,0,1,4.67-9.29l-16.1-16.14,30.68-30.18,16.08,16.13a82.84,82.84,0,0,1,19.28-7.83l-.11-21.09a56.82,56.82,0,0,0-79.75,78.08l21.84.12A81.37,81.37,0,0,1,150.92,194.75Z"></path><circle class="cls-2" cx="226.99" cy="226.99" r="56.81"></circle><path class="cls-3" d="M124.21,204.42h1.46a56.82,56.82,0,0,1,79.75-78.08V124.5h43.38v3.38L261,115.81,230.63,85.32,214,101.73a79.75,79.75,0,0,0-19.27-8l.07-23.16H151.43l.13,23a81.88,81.88,0,0,0-19.29,7.83L116.19,85.17,85.52,115.34l16.09,16.15A82.12,82.12,0,0,0,97,140.77a78.19,78.19,0,0,0-3.41,9.81l-23.31-.13v42.9l23,.14a81.25,81.25,0,0,0,7.88,19.22l-17,16.71,30.37,30.48,12.75-12.56-3.1,0Z"></path><path class="cls-4" d="M306,248.3l23.79.08V205.44l-23.54-.05a81.73,81.73,0,0,0-7.88-19.19L315,169.79l-30.34-30.5L268,155.71a81.32,81.32,0,0,0-9.35-4.65,83.34,83.34,0,0,0-9.92-3.4l.07-19.78V124.5H205.41v1.85l.11,21.09a82.84,82.84,0,0,0-19.28,7.83l-16.08-16.13-30.68,30.18,16.1,16.14a82.33,82.33,0,0,0-4.67,9.29,81.37,81.37,0,0,0-3.41,9.8l-21.84-.12h-1.46v42.9l3.1,0,19.95.12a81.08,81.08,0,0,0,7.88,19.23l-17,16.71,30.37,30.48,17-16.71a80.43,80.43,0,0,0,19.28,8.06v24.25l43.13,0v-24a81.57,81.57,0,0,0,19.36-7.87l17,16.88,30.69-30.13-17-16.95A81.69,81.69,0,0,0,306,248.3Zm-79,35.5A56.81,56.81,0,1,1,283.8,227,56.81,56.81,0,0,1,227,283.8Z"></path></svg>
